# xmcd
#
# Track frame offsets: 
#        150
#        18449
#        34679
#        53856
#        69912
#        100339
#        118784
#        133983
#        148695
#        171682
#        189103
#        207911
#
# Disc length: 2951 seconds
#
# Revision: 0
# Processed by: cddbd v1.5.2PL0 Copyright (c) Steve Scherf et al.
# Submitted via: ExactAudioCopy v1.0b4
#
DISCID=b10b850c
DTITLE=Billy Price and Otis Clay - This Time for Real
DYEAR=2014
DGENRE=Blues
TTITLE0=Somebody's Changing My Sweet Baby's Mind
TTITLE1=I'm Afraid of Losing You
TTITLE2=Going To the Shack
TTITLE3=All Because of Your Love
TTITLE4=Love Don't Love Nobody
TTITLE5=I'll Never Do You Wrong
TTITLE6=Don't Leave Me Starving For Your Love
TTITLE7=Broadway Walk
TTITLE8=Book of Memories
TTITLE9=Too Many Hands
TTITLE10=Tears of God
TTITLE11=You Got Me Hummin'
EXTD=
EXTT0=
EXTT1=
EXTT2=
EXTT3=
EXTT4=
EXTT5=
EXTT6=
EXTT7=
EXTT8=
EXTT9=
EXTT10=
EXTT11=
PLAYORDER=
